<svg height="1766" viewBox="0 0 7586 1766" width="7586" xmlns="http://www.w3.org/2000/svg"><g fill="none" fill-rule="evenodd"><g fill="#16509d"><path d="m7325 1585v-79l-143-251h68l102 189h5l103-189h64l-141 251v79zm-546-166c0 18 3 34 9 48 5 14 13 26 23 36 10 11 23 19 37 26 15 6 30 9 46 9 20 0 37-4 53-10 16-7 31-17 46-30l35 39c-19 19-40 32-61 41-20 8-45 13-73 13-25 0-48-5-69-13-21-9-39-21-55-36-16-16-29-34-37-55-9-21-13-43-13-68 0-24 4-46 13-67 8-21 20-39 36-54 15-16 34-28 55-36 21-9 45-13 70-13 28 0 53 4 73 13 21 9 42 22 61 40l-35 40c-15-14-30-24-46-30-16-7-33-11-53-11-16 0-31 3-45 9s-26 14-37 24c-10 11-18 23-24 38s-9 31-9 47zm-234-164v330h-54l-194-237v237h-58v-330h55l195 237v-237zm-750 0h255v54h-196v77h175v52h-175v94h204v53h-263zm-187 326-40 8-6-22c-13 8-26 14-41 18-14 4-30 6-48 6-29 0-55-5-78-16-23-10-42-24-58-43-12-14-21-31-28-50-8-20-11-41-11-63 0-24 4-46 13-67s21-39 38-54c15-16 34-28 55-36 21-9 45-13 70-13 27 0 52 4 73 12 20 9 41 23 60 42l-39 39c-14-14-29-24-43-30s-31-9-51-9c-17 0-32 3-46 9-15 6-27 14-38 25-10 10-18 22-24 36-5 14-8 30-8 46 0 18 3 34 9 49 6 14 14 27 25 37 10 10 23 18 36 24 14 5 28 8 44 8s30-2 42-6c13-4 24-10 35-16v-68l-85-5v-49h144zm-706-110h131l-63-156h-7zm98-216 146 330h-63l-28-61h-176l-27 61h-62l146-330zm-673 330h-257v-330h59v277h198zm-701-330h255v54h-196v77h176v52h-176v94h204v53h-263zm-384 330-133-330h64l107 273h5l106-273h62l-133 330zm-491-114h132l-64-156h-6zm98-216 146 330h-63l-27-61h-176l-27 61h-63l147-330zm-600 187h106c9 0 18-2 26-5 9-3 15-8 21-15 5-6 10-13 13-21s4-17 4-25c0-18-5-33-16-45-6-7-13-12-22-16s-19-6-29-6h-103zm229-66c0 28-8 52-23 72-6 8-13 14-20 20-8 6-16 11-25 15 9 16 20 33 31 51 10 17 21 34 31 51h-68l-53-90h-102v90h-58v-330h162c18 0 34 3 49 9s29 14 40 26c11 11 20 24 27 38 6 14 9 30 9 48zm-762-121h303v52h-123v278h-58v-278h-122z" fill-rule="nonzero"/><path d="m1331 1006h6255v81h-6255z"/><path d="m0 1046v1c0 47 39 86 86 86h462l382 633h197l-280-633h414l77 174h161l-85-260v-1l85-260h-161l-77 174h-414l280-633h-197l-382 633h-462c-47 0-86 39-86 86z"/><path d="m7016 140h556v134h-406v139h362v134h-362v156h420v134h-570zm-633 347c0 35 6 67 17 94 11 28 26 51 44 69 21 22 45 38 72 49 28 11 57 17 89 17 39 0 74-8 106-23 31-15 63-37 93-64l92 100c-43 39-88 69-134 90-46 20-99 31-157 31-54 0-103-9-148-28s-83-44-115-77c-34-32-60-71-79-116-20-44-29-92-29-142s9-97 29-141c19-43 45-82 77-114 32-33 71-58 116-77s95-28 149-28c58 0 111 10 157 29 46 20 91 51 134 93l-92 99c-30-28-62-50-93-65-32-14-67-22-106-22-64 0-117 21-158 62-20 20-36 44-47 72s-17 59-17 92zm-269-347v697h-150v-697zm-712 697-287-697h163l204 541h14l202-541h162l-289 697zm-788-316h192c40 0 72-14 95-42 20-24 29-51 29-83 0-34-11-64-33-88-22-23-52-34-91-34h-192zm466-125c0 28-4 55-13 81-8 25-20 49-36 70-11 15-24 29-40 42-15 13-31 24-48 34l126 214h-171l-99-182h-185v182h-150v-697h348c43 0 82 8 118 24 37 16 67 39 91 69 19 22 33 46 43 74 11 28 16 58 16 89zm-1310-256h555v134h-406v139h363v134h-363v156h420v134h-569zm-731 184c0-32 6-60 18-82s28-42 49-57c28-22 63-37 104-45 41-9 84-13 129-13s92 5 139 16c48 10 98 27 152 52l-54 119c-43-18-83-32-120-40-37-9-75-13-112-13-23 0-48 1-73 3-26 2-46 9-62 22-13 11-20 25-20 40 0 16 6 29 18 38 16 11 39 19 70 24l138 23c37 7 71 16 104 27s60 27 83 47c17 16 32 35 42 58s15 49 15 80c0 35-5 65-17 90-11 24-26 46-46 63-32 28-72 47-120 58-49 11-101 16-156 16-28 0-55-1-80-4-24-2-48-6-72-11-23-6-46-13-69-22-22-8-46-19-72-32l51-122c46 21 88 36 126 44 38 9 76 13 115 13 74 0 125-9 155-28 24-16 36-36 36-62 0-10-2-19-8-26-5-8-11-14-18-18-11-8-24-14-39-18-16-4-33-8-52-10l-155-28c-69-11-120-36-155-73-30-33-44-75-44-129z" fill-rule="nonzero"/></g><path d="m2473 521h193c40 0 71-14 95-42 19-24 29-51 29-83 0-34-11-64-33-88-22-23-52-34-91-34h-193zm466-125c0 28-4 55-12 81-8 25-21 49-36 70-11 15-25 29-40 42s-31 24-48 34l125 214h-170l-99-182h-186v182h-149v-697h348c42 0 82 8 118 24s67 39 91 69c18 22 33 46 43 74s15 58 15 89zm-756-256v697h-149v-697zm-873 410h333l-160-398h-17zm248-550 371 837h-160l-70-153h-446l-69 153h-157l371-837z" fill="#ef7f1a" fill-rule="nonzero"/></g></svg>