<svg height="24" viewBox="0 0 24 24" width="24" xmlns="http://www.w3.org/2000/svg"><g fill="#231f20" fill-rule="evenodd" transform="translate(1)"><path d="m14.8541667 14.496c-.3833334-.384-.9583334-.384-1.3416667 0 0 0-1.3416667 1.248-1.4375 1.344-.7666667 0-2.68333333-1.632-3.92916667-3.264-.76666666-.96-.76666666-1.44-.76666666-1.536l1.4375-1.44c.19166666-.192.2875-.384.2875-.672s-.09583334-.48-.2875-.672l-4.6-4.608c-.09583334-.192-.38333334-.288-.67083334-.288s-.47916666.096-.67083333.288c-.09583333.096-.2875.288-.38333333.384-1.15 1.056-2.49166667 2.304-2.49166667 4.32 0 2.4 1.725 5.376 5.55833333 9.216 3.83333334 3.936 6.80416667 5.76 9.19999997 5.76 2.1083334 0 3.3541667-1.44 4.5041667-2.688l.2875-.288c.3833333-.384.3833333-.96 0-1.344zm3.7375 5.568c-1.15 1.248-2.2041667 2.304-3.8333334 2.304-2.1083333 0-4.88749997-1.824-8.52916663-5.472-3.54583334-3.648-5.27083334-6.432-5.27083334-8.544 0-1.536 1.15-2.592 2.20416667-3.552.19166667-.192.2875-.288.47916667-.48l4.6 4.608-1.53333334 1.44c-.2875.288-.2875.864-.09583333 1.536.76666667 1.728 3.8333333 4.992 5.4625 4.992.1916667 0 .3833333 0 .4791667-.096l.1916666-.096c.0958334-.096 1.3416667-1.344 1.3416667-1.344l4.6 4.608z"/><path d="m18.0166667 11.424c0 .288.1916666.48.4791666.48.2875 0 .4791667-.192.4791667-.48.0958333-1.92-.6708333-3.84-2.0125-5.184s-3.1625-2.112-5.175-2.016c-.2875 0-.4791667.192-.4791667.48s.1916667.48.4791667.48c1.725-.096 3.3541667.576 4.5041667 1.728s1.8208333 2.784 1.725 4.512"/><path d="m19.2625 3.936c-2.0125-2.016-4.6-3.072-7.475-2.976-.2875 0-.4791667.192-.4791667.48s.2875.48.4791667.48c2.5875-.096 4.9833333.864 6.7083333 2.688 1.8208334 1.824 2.7791667 4.224 2.6833334 6.72 0 .288.1916666.48.4791666.48.2875 0 .4791667-.192.4791667-.48.1916667-2.688-.8625-5.376-2.875-7.392"/><path d="m11.3083333 7.968c0 .288.2875.48.4791667.48.7666667 0 1.5333333.192 2.1083333.768s.8625 1.344.7666667 2.112c0 .288.1916667.48.4791667.48.2875 0 .4791666-.192.4791666-.48.0958334-1.056-.2875-2.112-1.0541666-2.88-.7666667-.768-1.8208334-1.152-2.875-1.056-.1916667.096-.3833334.288-.3833334.576"/></g></svg>