<svg height="40" viewBox="30000 0 70000 51200" width="48" xmlns="http://www.w3.org/2000/svg"><g fill="#fefefe"><path d="m62131-5263c-363 131-656 448-741 790-25 110-35 1239-28 3740l10 3581 78 165c113 247 332 463 579 575 194 85 247 96 504 82 448-25 773-237 963-621l99-201v-3652-3651l-92-198c-187-395-540-635-966-656-170-7-297 7-406 46z"/><path d="m52197-1933c-350 71-653 297-819 618-81 151-95 218-95 494 0 275 14 338 95 494 67 130 738 818 2505 2578 2311 2308 2416 2410 2621 2484 716 265 1503-265 1514-1016 0-145-25-314-64-430-60-184-183-314-2522-2650-2290-2289-2466-2462-2632-2512-240-74-430-91-603-60z"/><path d="m72326-1922c-106 25-250 78-317 120s-1207 1161-2526 2487c-2674 2681-2537 2519-2537 3009 4 773 787 1309 1517 1041 205-74 311-176 2621-2484 2710-2702 2600-2571 2600-3072 0-237-14-314-98-484-233-472-752-726-1260-617z"/><path d="m83195-747c-571 95-1171 342-1697 695-204 137-2578 2490-10636 10544l-10372 10365-112-222c-558-1069-1937-3394-2696-4534-973-1453-1626-2173-2737-3012-2653-1997-6572-3133-8862-2565-808 201-1030 363-2441 1785-1309 1316-1316 1327-1316 1792 3 508-205 272 3309 3793l3150 3157 2410 7214c1887 5652 2434 7253 2526 7391 183 275 9200 9264 9645 9613 1728 1369 3665 2046 5838 2046 2141 0 4085-674 5786-2004 137-109 800-744 1474-1414 1171-1168 1224-1221 1129-1242-70-18-77-25-25-28 39 0 142-50 230-106 84-57 2522-2473 5415-5369 5443-5454 5404-5412 5687-5976 144-293 303-755 381-1112 88-412 88-1241 0-1658-283-1354-1157-2483-2304-2981-307-134-790-278-1044-317-92-14-173-35-180-50-11-10 21-148 67-303 402-1393 21-2988-974-4053-561-600-1390-1045-2229-1189-223-36-240-46-219-117 155-536 205-871 205-1397 0-945-230-1697-755-2451-519-752-1217-1235-2251-1556-32-11 1365-1440 3775-3853 2106-2109 3905-3937 3997-4060 91-127 229-335 307-466 589-1012 723-2342 349-3492-487-1482-1782-2600-3330-2872-381-63-1094-63-1500 4zm1309 2258c540 162 963 508 1252 1023 240 434 297 1072 134 1555-49 149-134 343-183 431-60 106-1937 2011-5320 5401-5023 5030-5235 5246-5306 5443-155 431-60 889 251 1200 247 246 437 324 804 324 356 0 469-49 882-388 469-381 924-536 1464-501 512 35 946 240 1327 625 518 525 709 1277 504 1982-120 406-272 610-1041 1390-811 819-878 914-903 1319-32 441 230 875 653 1084 155 77 247 95 444 98 336 0 530-81 861-360 487-405 917-560 1489-532 526 28 938 211 1312 575 653 638 805 1559 392 2392-113 218-230 356-861 994-857 868-928 974-931 1394 0 229 14 296 116 501 198 399 554 631 974 635 328 0 529-78 850-346 494-406 854-543 1393-547 1542-3 2516 1602 1810 2981-120 237-529 653-6621 6745-3927 3927-6601 6569-6760 6689-1153 861-2388 1330-3792 1439-1383 110-2907-250-4092-970-731-441-780-487-5468-5171l-4516-4512-2395-7187c-1316-3954-2434-7260-2480-7348-57-99-1126-1196-2900-2974l-2808-2811 600-600c659-660 730-706 1231-801 716-138 2155 71 3365 487 1612 554 3136 1436 4145 2395 889 843 2689 3658 4664 7299 423 776 628 939 1200 939 261 0 349-15 493-85 145-67 2181-2085 11113-11010 9719-9716 10961-10943 11151-11035 212-106 498-201 702-233 173-25 600 14 801 71z"/></g></svg>