<svg height="36" viewBox="0 0 116 36" width="70" xmlns="http://www.w3.org/2000/svg"><g fill="none" fill-rule="evenodd"><path d="m47.0836629 0-5.7718284 35.9287888h9.2217828l5.7718284-35.9287888zm27.8241558 14.6366403c-3.2254335-1.5940353-5.196836-2.6676811-5.196836-4.2945831.0383328-1.4844796 1.670216-3.00182592 5.3118345-3.00182592 2.9954365-.07668898 5.2023121.62994523 6.8725281 1.33110165l.8378461.37248935 1.254031-7.51552039c-1.8235473-.70663421-4.7094615-1.47900183-8.2798905-1.47900183-9.1122604 0-15.5247946 4.73828363-15.5631275 11.51430314-.0766656 5.0012173 4.588987 7.7729762 8.0827503 9.4382227 3.5704289 1.7090688 4.7861271 2.8155813 4.7861271 4.3329276-.0438089 2.3280584-2.8859142 3.4017042-5.5418314 3.4017042-3.6799513 0-5.65683-.5532562-8.6577426-1.8514912l-1.2156982-.5532562-1.2923639 7.8113207c2.1685427.9640901 6.1551567 1.8131467 10.2896258 1.856969 9.6817767 0 15.9847886-4.6670724 16.0614542-11.8867925.0328567-3.965916-2.4313964-6.9951308-7.748707-9.4765672zm32.7307573-14.52708461h-7.140858c-2.1959231 0-3.8716152.63542301-4.8189836 2.89227024l-13.7067234 32.92696287h9.6817766l2.6668695-7.1320755h10.8317619l1.385457 7.1594644h8.537269zm-10.634621 21.49484391c.1916641.016416 3.718284-11.63483174 3.718284-11.63483174l2.809249 11.63483174s-4.7039857-.0000174-6.527533 0zm-63.4024947-21.6043996-9.0355948 24.4090079-.9857012-4.8149726c-1.670216-5.5544735-6.910861-11.5855143-12.7593551-14.58734023l8.2798905 30.88374923h9.7584424l14.5062367-35.88496652h-9.7639185z" fill="#00579f"/><path d="m20.4072232 4.60690135c-.7044506-2.72597713-2.943402-4.56328572-5.9850995-4.60690135h-14.27468056l-.14744314.66513842c11.1346877 2.73688103 20.4782143 11.17105428 23.5144509 19.10364768z" fill="#faa61a"/></g></svg>