<svg height="36" viewBox="0 0 45 36" width="45" xmlns="http://www.w3.org/2000/svg"><g fill="none" fill-rule="evenodd"><circle cx="13.887448" cy="13.887448" fill="#eb001b" r="13.887448"/><circle cx="31.112552" cy="13.887448" fill="#0099df" r="13.887448"/><path d="m22.5056577 24.7717842c-3.2173661-2.5448869-5.280554-6.4734383-5.280554-10.8921162 0-4.40736714 2.0631879-8.34345897 5.280554-10.89211613 3.2060507 2.54865716 5.2692386 6.48474899 5.2692386 10.89211613 0 4.4186779-2.0631879 8.3472293-5.2692386 10.8921162z" fill="#6c6bbd"/><g fill="#231f1f"><path d="m7.67276576 31.9504964v-.4217937h-.8418529v3.7773139h.8418529v-1.9470302c0-.5573704.22650751-1.1034427.80410166-1.1034427h.23028263c.43036426 0 .68707277.4029637.68707277.8398216v2.2106513h.84185288c0-.5724344-.0792776-2.2257154.1434548-2.6399771.2151821-.3991977.5247424-.4104958.8871544-.4104958.5851444 0 .7285991.5498383.7285991 1.1448689v1.905604h.8418529v-2.2897377c0-1.6495149-1.6233038-1.7850915-2.3330273-1.3708297-.1472299.0866183-.4114886.2786851-.4605653.4556879-.23028259-.1544067-.32466072-.6477548-1.3741455-.6477548-.21895726 0-.43791452.0753204-.57381902.1544067-.20008163.1129805-.26048363.233493-.42281402.3427074z"/><path d="m15.6241372 34.6258365c-1.7551062 0-1.4456036-2.3698241-.2302397-2.3698241.3736677 0 .6869447.0113208.9738008.3622661.6718471.8264196.0641652 2.007558-.7435611 2.007558zm-2.102353-1.184912c0 1.5094421 1.4682501 2.3585033 2.6005767 1.8339721.2566607-.1169817.3057282-.2528315.4944493-.3811341v.4188702h.841696v-3.6679443c0-.1924539-.3246003-.1169818-.841696-.1169818v.4226438c-.2226909-.0603777-.0868118-.143397-.4680284-.3320773-1.0908079-.5433991-2.6269976.2452844-2.6269976 1.8226514z"/><path d="m20.0215153 32.211003h.2682368c.4458019 0 .7933763.4327555.8009323.8768003h-1.9116592c.0982275-.4252293.3286844-.8768003.8424901-.8768003zm-1.7227601 1.1025858c0 2.17883 2.0816684 2.506219 3.3095128 1.6971543.1095615-.0714988.0377798-.0602095.1737872-.0940773-.0151119-.1580498-.2909046-.5080174-.3853542-.6472517-.1133395.0263416-.1435634.0714987-.2455689.1354713-.7404846.4590971-1.8927693.2747056-1.9721069-.6698303h2.7919292v-.4590972c0-1.0197978-.7291507-1.8288625-1.8738795-1.8288625-.9973874 0-1.7983197.8692742-1.7983197 1.8664934z"/><path d="m34.4895816 33.550418c0-.3549593-.0075504-.5399913.2227372-.8496366l.1245818-.1434942c.6191338-.5777529 1.9857585-.396497 1.9857585.9553691 0 .1585989-.0453025.3549593-.1019306.4720203-.1887603.3964971-.5700561.6532762-1.0457321.6683808-.6191339.0188808-1.1854148-.4682441-1.1854148-1.1026394zm-.8796231-.1925843c0 .6721569.2076364 1.1555057.585157 1.5217935 1.1854148 1.163058 3.5071667.4569156 3.5071667-1.4047325 0-1.2763429-.9173752-2.0277993-2.140542-2.0277993-1.0344066 0-1.9517817.8798459-1.9517817 1.9107383z"/><path d="m22.8064881 32.6358016c0 1.0047148.9920785 1.0991429 1.6974727 1.2086795.3847604.0566568.6337231.1170908.6337231.3965979 0 .4079293-.5695964.4230378-.8789136.4230378-.5960015 0-.841192-.1813019-1.2221803-.3814894-.116937.2228502-.2640513.4268149-.3809883.6496652 1.4145605.9480579 3.3609958.4381463 3.3609958-.6496652 0-.6307796-.2942286-.9896063-.9166352-1.1520226-.2602792-.0679882-.5318748-.0982052-.8072426-.1435307-1.1052433-.1813019-.4790645-.7705332-.071671-.7705332 1.0448887 0 .8977744.1926333 1.3768389.305947.0603546-.2681757.2829121-.4494776.3055451-.6912135-.886458-.5930084-3.0969446-.6232254-3.0969446.8045272z"/><path d="m27.466877 30.5024984v1.0293049h-.7656322v.8030841h.7656322v1.756982c0 1.214052.8976377 1.5119094 1.863164 1.2517555.1848078-.0490146.2979554-.1432733.4676768-.1847471-.0075431-.271465-.1697214-.4637527-.1923509-.7239067-.2262952.0188517-1.297426.6447294-1.297426-.4599825v-1.6401012h1.3351419v-.8030841h-1.3351419v-1.0293049c0-.184747-.2564679-.1168808-.7279163-.1168808-.0867465 0-.1131476.0263925-.1131476.1168808z"/><path d="m31.6580001 31.9450207v-.422482h-.802191v3.7834779h.8398526v-2.2557525c0-1.1127877 1.1336126-.7393437 1.2955572-.724255.0564923-.2376462.2259693-.5620521.2297355-.8034704-.2448001-.0188608-.2372678-.0754433-.6101171-.0754433-.5799879 0-.6440125.2904565-.9528372.4979253z"/></g></g></svg>