<svg height="32" viewBox="0 0 32 32" width="32" xmlns="http://www.w3.org/2000/svg"><g fill="#3887d8"><path d="m31.3322523 2.98241441-10.1383064-2.88288288c-.0035315-.00100901-.0072072-.0012973-.0108108-.0023063-.0241441-.00648649-.0487207-.01160361-.0738018-.01556757-.0074955-.00115316-.014991-.00245045-.0224865-.00345946-.0292612-.00367568-.0588828-.00612613-.089081-.0061982-.0006487 0-.0012253 0-.0018739 0-.0302703.00007207-.0598198.00252252-.0890811.0061982-.0075676.00093694-.014991.00223423-.0224865.00345946-.0250811.00396396-.0496576.00908108-.0738018.01556757-.0035315.00093693-.0072793.00129729-.0108108.0023063l-9.9411171 2.82688288-9.94075676-2.82688288c-.21722523-.06176576-.45117117-.01809009-.6314955.11812613-.18032432.13621621-.28634234.34911711-.28634234.57513513v27.53153151c0 .3220901.21376577.6051171.5236036.6932613l10.1378739 2.8828829c.0035315.001009.0072072.0012973.0107387.0022342.0242883.0064865.049009.0116757.0741622.0156396.0072793.0011532.0145585.0023784.0219099.0033154.0296216.0037477.0596757.0062702.0903063.0062702s.0606847-.0025225.0903063-.0062702c.0073514-.000937.0145586-.0021622.0219099-.0033154.0251532-.0039639.049946-.0091531.0741622-.0156396.0035315-.0009369.0072072-.0012252.0107387-.0022342l9.9411171-2.8268108 9.9411892 2.8268108c.0648649.0184504.1311712.0274594.1971171.0274594.1550271 0 .3078919-.050018.4343784-.1456576.1803243-.1362162.2863424-.3491171.2863424-.5750631v-27.53153152c0-.32209009-.2137658-.60511712-.5236036-.69326127zm-19.752937 1.23762163 8.6967928-2.47300901v26.03293697l-8.6967928 2.473009zm-10.13787386-2.47300901 8.69643246 2.47300901v26.03293696l-8.69643246-2.473009zm28.97297296 28.50594597-8.6968649-2.473009v-26.03293697l8.6968649 2.47300901z"/><path d="m8.17275676 26.0905225-4.37203604-1.2432432c-.38306306-.108973-.78154955.1132973-.89037838.4960721-.1089009.3829189.11322523.7814774.49607207.8903783l4.37203604 1.2432433c.06594595.0187387.13225225.0276756.19747748.0276756.31394594 0 .60273874-.2067747.6929009-.5237477.10897297-.3828468-.11322523-.7814775-.49607207-.8903784z"/><path d="m8.17275676 22.4869189-4.37203604-1.2432432c-.38306306-.108973-.78154955.1132973-.89037838.496072-.1089009.382919.11322523.7814775.49607207.8903784l4.37203604 1.2432433c.06594595.0187387.13225225.0276756.19747748.0276756.31394594 0 .60273874-.2067747.6929009-.5237477.10897297-.3828468-.11322523-.7814775-.49607207-.8903784z"/><path d="m8.17275676 18.8833153-4.37203604-1.2432432c-.38306306-.1088289-.78154955.1132252-.89037838.496072-.1089009.382919.11322523.7814775.49607207.8903784l4.37203604 1.2432433c.06594595.0187387.13225225.0276756.19747748.0276756.31394594 0 .60273874-.2067747.6929009-.5237477.10897297-.3828469-.11322523-.7814775-.49607207-.8903784z"/><path d="m8.17275676 5.7661982-4.37203604-1.24324325c-.21744144-.06176576-.45117117-.01809009-.63149549.11812613-.18032433.13621622-.28634235.34911712-.28634235.57513514v9.51351348c0 .3220901.21376577.6051171.52360361.6932613l4.37203603 1.2432432c.06486487.0184505.13117117.0274595.19711712.0274595.15502703 0 .30789189-.050018.43437838-.1456577.18032432-.1362162.28634234-.3491171.28634234-.575063v-9.51351354c0-.32209009-.21376577-.60511712-.5236036-.69326126zm-.91783784 9.2525405-2.9305946-.8333693v-8.01491895l2.9305946.83336937z"/><path d="m13.741045 7.1803964c.0652253 0 .1316036-.00893694.1974775-.02767568l4.3725406-1.24331531c.3828468-.10890091.6049729-.50753154.496072-.89037838-.1089009-.38284685-.5076756-.60497298-.8903783-.49607208l-4.3725406 1.24331532c-.3828468.1089009-.604973.50753153-.4960721.89037838.0901622.31697297.3788829.52374775.6929009.52374775z"/><path d="m17.9168288 24.8472793-4.3725405 1.2433153c-.3828469.1089009-.604973.5075315-.4960721.8903784.0900901.3169729.3788829.5237477.6929009.5237477.0652252 0 .1316036-.0089369.1974775-.0276757l4.3725405-1.2433153c.3828469-.1089009.604973-.5075315.4960721-.8903783-.1089009-.3828469-.5076757-.604973-.8903784-.4960721z"/><path d="m17.9168288 21.2436757-4.3725405 1.2433153c-.3828469.1089009-.604973.5075315-.4960721.8903784.0900901.3169729.3788829.5237477.6929009.5237477.0652252 0 .1316036-.0089369.1974775-.0276757l4.3725405-1.2433153c.3828469-.1089009.604973-.5075315.4960721-.8903784-.1089009-.3828468-.5076757-.6049729-.8903784-.496072z"/><path d="m17.9168288 17.6400721-4.3725405 1.2433153c-.3828469.1089009-.604973.5075315-.4960721.8903784.0900901.3169729.3788829.5237477.6929009.5237477.0652252 0 .1316036-.0089369.1974775-.0276757l4.3725405-1.2433153c.3828469-.1089009.604973-.5075315.4960721-.8903784-.1089009-.3827747-.5076757-.6049009-.8903784-.496072z"/><path d="m17.9168288 14.0364685-4.3725405 1.2433153c-.3828469.1089009-.604973.5075315-.4960721.8903784.0900901.3169729.3788829.5237477.6929009.5237477.0652252 0 .1316036-.0089369.1974775-.0276757l4.3725405-1.2433153c.3828469-.1089009.604973-.5075315.4960721-.8903784-.1089009-.3828468-.5076757-.6049009-.8903784-.496072z"/><path d="m23.6825946 5.90940541 4.3725405 1.24338738c.065946.01873874.1322523.02767568.1974775.02767568.313946 0 .6027388-.20677478.6929009-.52374775.1089009-.38291892-.1132252-.78147748-.4960721-.89037838l-4.3725405-1.24338739c-.382991-.10875675-.7814775.1132973-.8903784.49607208-.1089009.38284684.1132252.78147747.4960721.89037838z"/><path d="m23.6825946 9.51300901 4.3725405 1.24338739c.065946.0187387.1322523.0276757.1974775.0276757.313946 0 .6027388-.2067748.6929009-.5237478.1089009-.38291889-.1132252-.78147745-.4960721-.89037835l-4.3725405-1.24338739c-.382991-.10875676-.7814775.1132973-.8903784.49607207-.1089009.38284685.1132252.78147748.4960721.89037838z"/><path d="m23.6825946 13.1166126 4.3725405 1.2433874c.065946.0187387.1322523.0276757.1974775.0276757.313946 0 .6027388-.2067748.6929009-.5237478.1089009-.3829189-.1132252-.7814774-.4960721-.8903784l-4.3725405-1.2433873c-.382991-.1086847-.7814775.1132973-.8903784.496072-.1089009.3828469.1132252.7814775.4960721.8903784z"/><path d="m23.6825946 26.2337297 4.3725405 1.2433874c.0648649.0184505.1311712.0274595.1971172.0274595.155027 0 .3078918-.050018.4343783-.1456577.1803244-.1362162.2863424-.3491171.2863424-.575063v-9.5135136c0-.32209-.2137658-.6051171-.5236036-.6932612l-4.3725406-1.2433874c-.2174414-.0616937-.4511711-.0180901-.6314955.1181261-.1803243.1362162-.2863423.3491171-.2863423.5750631v9.5135135c0 .3221622.2137658.6051892.5236036.6933333zm.9178378-9.2525405 2.9310991.8335135v8.0149189l-2.9310991-.8334414z"/></g></svg>