<svg height="24" viewBox="0 0 24 24" width="24" xmlns="http://www.w3.org/2000/svg"><g fill="none" fill-rule="evenodd"><path d="m3 0h18c1.6546875 0 3 1.3453125 3 3v18c0 1.6546875-1.3453125 3-3 3h-18c-1.6546875 0-3-1.3453125-3-3v-18c0-1.6546875 1.3453125-3 3-3" fill="#7b519d"/><g fill="#fff"><path d="m19.7765625 16.1953125c-.571875-.459375-1.18125-.871875-1.7859375-1.29375-1.2-.84375-2.296875-.909375-3.1921875.4453125-.5015625.759375-1.2046875.7921875-1.940625.459375-2.0296875-.91875-3.5953125-2.334375-4.5140625-4.396875-.4078125-.9140625-.3984375-1.7296875.5484375-2.3765625.5015625-.3421875 1.0078125-.7453125.9703125-1.490625-.0515625-.9703125-2.4140625-4.21875-3.346875-4.5609375-.384375-.140625-.76875-.13125-1.1625 0-2.184375.7359375-3.0890625 2.53125-2.221875 4.659375 2.5875 6.346875 7.1390625 10.7671875 13.40625 13.4625.35625.1546875.7546875.215625.95625.271875 1.425.0140625 3.0984375-1.359375 3.58125-2.7234375.459375-1.3125-.5203125-1.8328125-1.2984375-2.45625"/><path d="m12.7546875 3.628125c4.5796875.703125 6.69375 2.8828125 7.275 7.4953125.05625.4265625-.103125 1.06875.5015625 1.078125.6375.0140625.4828125-.61875.4875-1.0453125.0515625-4.3453125-3.7359375-8.371875-8.1328125-8.521875-.3328125.046875-1.0171875-.2296875-1.059375.515625-.0328125.50625.5484375.421875.928125.478125"/><path d="m13.65 4.89375c-.440625-.0515625-1.021875-.2625-1.125.3515625-.1078125.6421875.5390625.5765625.95625.6703125 2.8265625.6328125 3.815625 1.6640625 4.2796875 4.4671875.0703125.4078125-.065625 1.0453125.628125.9421875.515625-.0796875.328125-.6234375.3703125-.9421875.0234375-2.6953125-2.2828125-5.146875-5.109375-5.4890625"/><path d="m13.9078125 7.096875c-.2953125.009375-.58125.0375-.6890625.3515625-.1640625.46875.178125.58125.525.6375 1.1625.1875 1.771875.871875 1.8890625 2.0296875.0328125.3140625.2296875.5671875.534375.534375.421875-.0515625.459375-.4265625.4453125-.778125.01875-1.303125-1.4484375-2.803125-2.7046875-2.775"/></g></g></svg>