<svg height="24" viewBox="0 0 24 24" width="24" xmlns="http://www.w3.org/2000/svg"><path d="m15.3 10.8c-1.6-.4-5.6-1.1-7.4.5-.8.7-1.1 1.6-1 2.8.2 2.1 1.6 3.3 3.7 3.3 1.7 0 3.7-.9 4.8-2.1.1.4.3.8.7 1.2.6.6 1.4.9 2.4.9 1.3 0 2.5-.5 3.4-1.5 1.2-1.3 1.8-3.3 1.6-5.5-.6-5.9-5.7-10.4-11.7-10.4-6.5 0-11.8 5.3-11.8 11.7 0 6.5 5.3 11.7 11.8 11.7 2.5 0 4.9-.8 7-2.3.2-.2.3-.5.1-.7s-.5-.3-.7-.1c-1.9 1.4-4.1 2.1-6.4 2.1-6 0-10.8-4.8-10.8-10.7s4.8-10.7 10.8-10.7c5.5 0 10.1 4.1 10.7 9.5.2 1.8-.3 3.6-1.3 4.7-.7.8-1.6 1.2-2.7 1.2-.7 0-1.2-.2-1.6-.6-.7-.8-.6-2.1-.6-2.1v-3.1c0-.1.1-2.4-1.6-3.7-1.5-1.2-3.7-1.2-6.6-.2-.2.1-.4.4-.3.7s.4.4.6.3c2.6-.9 4.5-.9 5.6-.1 1.3 1 1.2 2.8 1.2 2.9v.3zm-4.6 5.6c-1.2 0-2.6-.4-2.8-2.4-.1-.9.1-1.5.6-2 1.4-1.2 5.1-.7 6.8-.3v1.8c-.1 1.4-2.5 2.9-4.6 2.9z" fill="#231f20" fill-rule="evenodd"/></svg>