<svg height="24" viewBox="0 0 24 24" width="24" xmlns="http://www.w3.org/2000/svg"><g fill="none" fill-rule="evenodd"><path d="m3 0h18c1.6546875 0 3 1.3453125 3 3v18c0 1.6546875-1.3453125 3-3 3h-18c-1.6546875 0-3-1.3453125-3-3v-18c0-1.6546875 1.3453125-3 3-3" fill="#01b7ee"/><path d="m20.7140625 13.9921875c.13125-.609375.20625-1.2421875.20625-1.89375-.0046875-4.8703125-3.9515625-8.8171875-8.821875-8.8171875-.515625 0-1.0171875.0421875-1.509375.1265625-.7875-.4921875-1.7203125-.7828125-2.71875-.7828125-2.821875 0-5.1140625 2.2875-5.1140625 5.1140625 0 .946875.2578125 1.828125.703125 2.5875-.1171875.571875-.178125 1.1671875-.178125 1.771875 0 4.8703125 3.946875 8.8171875 8.8171875 8.8171875.553125 0 1.0921875-.0515625 1.6171875-.1453125.7171875.384375 1.5421875.6046875 2.41875.6046875 2.821875 0 5.1140625-2.2875 5.1140625-5.1140625-.0046875-.815625-.196875-1.584375-.534375-2.26875m-4.0921875 2.3203125c-.4078125.5765625-1.0078125 1.0359375-1.790625 1.359375-.7734375.3234375-1.7015625.4828125-2.75625.4828125-1.265625 0-2.3296875-.225-3.159375-.6609375-.590625-.31875-1.0828125-.7546875-1.453125-1.2890625-.375-.5390625-.5625-1.0734375-.5625-1.59375 0-.3234375.1265625-.6.3703125-.8296875.24375-.225.553125-.3421875.91875-.3421875.3046875 0 .5671875.0890625.778125.271875.2015625.1734375.375.4265625.515625.7546875.1546875.35625.328125.6609375.50625.9.1734375.2296875.421875.421875.740625.571875s.75.2296875 1.2796875.2296875c.73125 0 1.3265625-.1546875 1.7765625-.4640625.440625-.3.6515625-.6609375.6515625-1.1015625 0-.346875-.1078125-.6234375-.3421875-.834375-.2390625-.225-.5578125-.3984375-.9421875-.5203125-.3984375-.1265625-.946875-.2578125-1.6171875-.403125-.9140625-.1921875-1.6921875-.4265625-2.3109375-.6890625-.6328125-.2671875-1.1390625-.6421875-1.5140625-1.1109375-.3796875-.4734375-.571875-1.06875-.571875-1.7671875 0-.665625.2015625-1.265625.6-1.7859375.39375-.515625.9703125-.9140625 1.7109375-1.1859375.7359375-.271875 1.603125-.4078125 2.5875-.4078125.7875 0 1.4765625.0890625 2.0578125.271875s1.0734375.4265625 1.4578125.7265625c.3890625.3046875.675.628125.8578125.9609375.1828125.3421875.2765625.6796875.2765625 1.0078125 0 .3140625-.121875.6-.3609375.8484375-.2390625.253125-.5484375.3796875-.9046875.3796875-.3234375 0-.58125-.0796875-.759375-.2390625-.1640625-.1453125-.3375-.375-.5296875-.6984375-.2203125-.4171875-.4828125-.7453125-.7921875-.9796875-.2953125-.225-.7921875-.3421875-1.471875-.3421875-.6328125 0-1.14375.1265625-1.528125.3796875-.365625.2390625-.54375.515625-.54375.84375 0 .2015625.05625.3703125.1734375.515625.1265625.1546875.3.2859375.525.3984375.234375.1171875.46875.2109375.7078125.2765625.24375.065625.65625.16875 1.21875.3.7125.1546875 1.36875.3234375 1.95.5109375.5859375.1875 1.096875.421875 1.509375.6890625.421875.2765625.759375.628125.99375 1.05.234375.4265625.35625.946875.35625 1.55625.0046875.7171875-.2015625 1.3828125-.609375 1.959375" fill="#fff"/></g></svg>