<svg height="24" viewBox="0 0 24 24" width="24" xmlns="http://www.w3.org/2000/svg"><g fill="none" fill-rule="evenodd"><path d="m3 0h18c1.6546875 0 3 1.3453125 3 3v18c0 1.6546875-1.3453125 3-3 3h-18c-1.6546875 0-3-1.3453125-3-3v-18c0-1.6546875 1.3453125-3 3-3" fill="#65bc54"/><path d="m21.375 11.7609375c0 5.04375-4.1203125 9.13125-9.20625 9.13125-1.6125 0-3.13125-.4125-4.4484375-1.134375l-5.0953125 1.6171875 1.659375-4.8984375c-.8390625-1.378125-1.321875-2.990625-1.321875-4.715625.0046875-5.0484375 4.125-9.1359375 9.20625-9.1359375 5.0859375 0 9.20625 4.0875 9.20625 9.1359375m-9.20625-7.6828125c-4.265625 0-7.7390625 3.4453125-7.7390625 7.678125 0 1.678125.5484375 3.234375 1.471875 4.5l-.965625 2.85 2.971875-.946875c1.2234375.8015625 2.6859375 1.2703125 4.25625 1.2703125 4.265625 0 7.7390625-3.4453125 7.7390625-7.678125.0046875-4.228125-3.4640625-7.6734375-7.734375-7.6734375m4.65 9.7828125c-.05625-.09375-.20625-.15-.43125-.2625s-1.3359375-.6515625-1.5421875-.7265625-.35625-.1125-.50625.1125-.58125.7265625-.7125.8765625-.2625.16875-.4875.05625-.9515625-.346875-1.8140625-1.1109375c-.6703125-.5953125-1.125-1.3265625-1.25625-1.5515625s-.0140625-.346875.0984375-.4546875c.103125-.0984375.225-.2625.3375-.39375s.15-.225.225-.375.0375-.28125-.01875-.39375-.50625-1.2140625-.69375-1.659375c-.1875-.45-.375-.375-.50625-.375s-.28125-.01875-.43125-.01875-.39375.05625-.6.28125-.7875.7640625-.7875 1.865625.80625 2.165625.9234375 2.315625c.1125.15 1.5609375 2.484375 3.853125 3.3796875s2.2921875.5953125 2.709375.5578125c.4125-.0375 1.3359375-.5390625 1.5234375-1.0640625.1734375-.515625.1734375-.965625.1171875-1.059375" fill="#fff"/></g></svg>