<svg enable-background="new 0 0 512 512" height="40" viewBox="0 0 512 512" width="48" xmlns="http://www.w3.org/2000/svg"><g fill="#fff"><path d="m458.731 162.853c-27.946 0-50.683 22.736-50.683 50.683v264.676h-33.788v-197.099c0-27.946-22.736-50.683-50.683-50.683-27.946 0-50.683 22.736-50.683 50.683v197.099h-33.788v-129.523c0-27.946-22.736-50.683-50.683-50.683-27.946 0-50.683 22.736-50.683 50.683v129.522h-33.788v-61.946c0-27.946-22.736-50.683-50.683-50.683-27.946 0-50.683 22.736-50.683 50.683v78.84c0 9.331 7.564 16.894 16.894 16.894h473.039c9.33 0 16.894-7.564 16.894-16.894v-281.569c.001-27.947-22.736-50.683-50.682-50.683zm-388.567 315.359h-33.789v-61.946c0-9.315 7.579-16.894 16.894-16.894s16.894 7.579 16.894 16.894v61.946zm135.154 0h-33.788v-129.523c0-9.315 7.579-16.894 16.894-16.894s16.894 7.579 16.894 16.894zm135.153 0h-33.788v-197.099c0-9.315 7.579-16.894 16.894-16.894s16.894 7.579 16.894 16.894zm135.154 0h-33.788v-264.676c0-9.315 7.579-16.894 16.894-16.894s16.894 7.579 16.894 16.894z"/><path d="m478.524 23.622-67.973-22.744c-8.847-2.961-18.421 1.812-21.381 10.66-2.961 8.848 1.812 18.421 10.66 21.381l28.986 9.698-383.904 191.953c-8.346 4.173-11.728 14.321-7.555 22.666 4.175 8.35 14.325 11.727 22.666 7.555l384.28-192.14-9.905 29.603c-2.961 8.848 1.812 18.421 10.66 21.381 8.855 2.962 18.424-1.819 21.383-10.66l22.743-67.972c2.96-8.848-1.812-18.421-10.66-21.381z"/></g></svg>