<svg height="36" viewBox="0 0 46 36" width="46" xmlns="http://www.w3.org/2000/svg"><g fill="none" fill-rule="evenodd"><path d="m22.5099776 2.98577828.796493.70572942c.0995616.09047813.1538679.13571719.2624806.24429095 1.8102113 1.84575384 3.0502061 3.81817707 3.7561885 6.39680375.9141567 3.3748343.4435017 7.1839635-1.1404332 10.0973593-.9503609 1.7371801-1.9459771 2.9314914-3.4212993 4.1891374-.153868.1266694-.2172254.1266694-.2443785.244291.3982464.2442909.8326972.6514425 1.4662711.9952594.8507993.4614385 1.5296286.8504944 2.4890406 1.1671679 1.3214542.4433428 2.724368.7690641 4.1453839.7690641.2262764 0 .4072975.0271434.5702165.0090478.153868-.0271435.8417483-.0090478 1.1675863-.0452391 2.1632025-.2804822 3.3760441-.6242991 5.2315107-1.5652716l.3801444-.2080997c.7693398-.4704863 1.0951778-.678586 1.8283134-1.2485982.1267148-.099526.2081743-.1900041.3348891-.2804822l.7964929-.7328729c.796493-.86859 1.2399948-1.402411 1.9007219-2.3886226l.3439402-.57906c.2172253-.4071516.642625-1.212407.7964929-1.6557498l.3982465-1.1219288c.162919-.5247732.3258381-1.2305026.4072976-1.7643235.2986848-1.7824192.2443785-3.8181771-.1991233-5.5734528l-.1900722-.73287289c-.1357658-.49762971-.5521144-1.52908039-.7783908-1.98147104-.0362043-.0723825-.0633574-.11762157-.0995616-.19000407l-1.2852501-2.09909261c-.488757-.65144254-.7240845-.92287693-1.2761989-1.48384133-.0271532-.02714344-.0452553-.03619125-.0724085-.07238251l-1.0499226-.95002036c-.2353274-.19000407-.4525528-.35286471-.6969313-.53382096-.3529912-.26238658-1.1766374-.76906411-1.5386796-.95002037l-2.1269983-.91382911-1.4662712-.39810377c-.3348891-.0723825-.6607271-.13571719-1.0227694-.19000407-1.8192623-.25333877-3.8376479-.1357172-5.5573487.36191252l-.6969313.2080997c-1.0408715.32572126-1.8283134.76001629-2.7424701 1.257646-.2715317.14476501-1.3033522.85049442-1.4662712 1.01335505z" fill="#f79e1b"/><path d="m22.4647223 24.818151c-.1448169-.0723825-.4072975-.3347691-.5521144-.4433428-.2715317-.2171475-.8236462-.7690641-1.0318205-1.0043073-.8507993-.9590681-1.448169-1.7009888-2.0998451-2.9676826-2.1632025-4.1800896-2.1269983-8.8216177.0181021-13.00170728.6154719-1.19431132 1.3033522-2.03575792 2.1088962-2.95863485.0905106-.09952594.153868-.18095626.2443785-.26238657.1086127-.09952595.1719701-.17190845.2534296-.26238658l.805544-.70572941c.0995617-.08143032.1900722-.14476501.2443786-.22619533l-.6878803-.51572534c-2.1269983-1.3933632-3.7018822-1.99956666-6.245229-2.35243137-.4978082-.07238251-1.7830582-.17190845-2.3442237-.08143032l-2.9053891.45239065-1.16758633.38000815c-1.04992256.41619939-1.13138206.45239065-2.09984511.9771638l-1.14043313.72382504c-.23532747.18095626-.45255282.32572126-.68788029.51572534-.23532747.19000407-.45255283.37096033-.66072713.57906003-.07240845.0723825-.08145951.0723825-.15386796.12666938l-.47065494.47048627c-.11766374.10857376-.18102113.2080997-.29868487.31667346-.09956162.10857375-.19007218.2080997-.28963381.33476908l-.55211444.68763378c-.09051057.11762157-.17197008.22619533-.25342959.36191252-.05430634.06333469-.08145951.11762157-.12671479.18095626-.19912324.26238658-.4163486.66049035-.57926762.94097255-.17197007.28048221-.28963381.51572534-.43445071.81430317l-.28058275.61525128c-.03620423.09047813-.05430634.14476501-.09051057.22619533-.06335739.15381282-.11766373.30762564-.17197007.44334283-.88700354 2.38862263-1.07707573 5.42868783-.42539966 8.01636233.03620423.1719084.07240845.3257212.12671479.4885819l.64262502 1.8005148c.07240845.1628606.13576584.2804822.19912324.4252472l.65167607 1.2124069c.04525528.0723825.07240845.1176216.11766374.1900041.4163486.6333469.5611655.8323988 1.03182044 1.4205066.05430634.0723825.09051057.1085738.13576585.1719085.13576585.1628606.66977818.7600163.89605459.9409725.10861268.099526.19912325.2080997.30773593.3076257.07240845.0723825.08145951.0814303.15386796.1357172l2.1451004 1.5743194c.60642078.3257213.71503346.4071516 1.41196482.7328729.15386796.0723825.28058275.1176215.43445071.1809562 1.84641551.6966816 2.11794721.7057294 3.93720961.968116.5159102.0723825 1.2218926.0452391 1.764956.0452391 1.0227694 0 1.7830581-.1719085 2.724368-.3528647.1810212-.0361913.3348891-.0814303.4978081-.1266694.479706-.1176216.9141567-.2985778 1.3757606-.4614385.153868-.0542869.2805828-.1085737.4344507-.1809562.5430634-.2261954.7783909-.3709604 1.2309437-.6062035z" fill="#ea011a"/><path d="m22.4647223 24.818151.0543064.0452391c.0271531-.1176216.0905105-.1176216.2443785-.244291 1.4753222-1.257646 2.4709384-2.4519573 3.4212993-4.1891374 1.5839349-2.9133958 2.0545899-6.722525 1.1404332-10.0973593-.7059824-2.57862668-1.9459772-4.55104991-3.7561885-6.39680375-.1086127-.10857376-.162919-.15381282-.2624806-.24429095l-.796493-.70572942h-.0543063c-.0543064.08143032-.1448169.14476501-.2443786.22619533l-.805544.70572941c-.0814595.09047813-.1448169.16286063-.2534296.26238658-.0905105.08143031-.1538679.16286063-.2443785.26238657-.805544.92287693-1.4934243 1.76432353-2.1088962 2.95863485-2.1451004 4.18008958-2.1813046 8.82161768-.0181021 13.00170728.6516761 1.2666938 1.2490458 2.0086145 2.0998451 2.9676826.2081743.2352432.7602888.7871598 1.0318205 1.0043073.1448169.1085737.4072975.3709603.5521144.4433428z" fill="#ff5f00"/><g transform="translate(.133588 .026718)"><ellipse cx="13.768405" cy="13.759542" fill="#eb001b" rx="13.768405" ry="13.759542"/><ellipse cx="30.849916" cy="13.759542" fill="#f79e1b" rx="13.768405" ry="13.759542"/><path d="m22.3136864 24.5518718c-3.1863763-2.5239397-5.2321747-6.4138825-5.2321747-10.7923298 0-4.36940092 2.0457984-8.26839014 5.2321747-10.79232979 3.1773241 2.52393965 5.2231225 6.42292887 5.2231225 10.79232979 0 4.3784473-2.0457984 8.2683901-5.2231225 10.7923298z" fill="#ff5f00"/></g><g fill="#000" transform="translate(2.431298 29.736641)"><path d="m.81441991 1.8933597v-.42577946h-.81441991v3.72330544h.81441991v-1.97489193c0-.31706981.04524555-.55260738.1809822-.74284926.2714733-.38954291 1.51120139-.62508048 1.51120139.68849443v2.02924676h.81441991v-2.05642417c0-1.05991907 1.04969677-1.12333303 1.42071028-.77908581.21717864.19930102.2714733.51637083.2714733.86061805v1.97489193h.81441991c.07239288 0 .0904911-.01811827.0904911-.08153224v-2.29196174c0-.82438149-.62438859-1.43134369-1.30307185-1.43134369-.46150462 0-.88681279.01811827-1.27592452.38048377-.06334377.07247309-.16288399.19930102-.21717865.23553757-.04524555-.03623655-.14478576-.17212361-.19908042-.22647844-.38006262-.43483859-1.26687541-.51637082-1.71933092-.22647843-.16288398.09965051-.2714733.20836016-.38911173.34424722z"/><path d="m37.5447578 3.38811735c0-.68849443.4072099-1.24110181.986353-1.24110181.3619644 0 .6696341.01811828.9230092.31706981.3891118.45295686.40721 1.25016095-.0090491 1.69405868-.3529153.36236549-.8506163.42577945-1.2759245.21741929-.3619644-.17212361-.6243886-.54354824-.6243886-.98744597zm2.1446391-1.49475765c-.0995402-.06341396-.0723929-.09965051-.1900313-.19024189-.0904911-.07247309-.1085893-.09059137-.2081296-.14494619-.8415672-.50731169-2.6242419-.00905914-2.6242419 1.80276832 0 1.01462338.8144199 1.88430056 1.7826747 1.88430056.2986206 0 .5429466 0 .8144199-.13588706.0542947-.02717741.1719331-.10870964.2171787-.15400533.0814419-.06341396.1176384-.12682792.2081295-.19024188v.42577945h.8144199v-5.19088568h-.8144199z"/><path d="m30.1063893 3.41529477c0-.35330636.0452455-.66131703.2895715-.92403201.488652-.5344891 1.3030719-.40766118 1.6197907-.02717741.6062904.72473098.2081296 2.02018762-.6967815 2.02018762-.3619644 0-.6515359-.06341396-.8958619-.31706981-.1447857-.13588706-.3167188-.48013427-.3167188-.75190839zm-.8777637-.17212361v.14494619c0 .97838683.7963217 1.85712315 1.7736256 1.85712315.3438662 0 .5067502 0 .7963217-.13588706.2352768-.09965051.2805224-.22647843.4434064-.34424721v.42577945h.823469v-3.72330544h-.823469v.42577946l-.1266876-.12682792c-.4705537-.48919342-1.2849736-.48013428-1.8731658-.19024189-.5881921.29895153-1.0135003.94215028-1.0135003 1.66688127z"/><path d="m8.67809658 4.48427297h-.14478576c-.59724126 0-1.06779499-.48919342-1.06779499-1.09615562 0-.48919341.13573665-.88779545.54294661-1.12333302.32576796-.18118275.74202702-.16306447 1.06779499-.00905914.59724126.27177412.8053708 1.25016095.30766974 1.86618229-.12668754.16306447-.41625906.36236549-.70583059.36236549zm-2.05414799-1.18674699c0 1.07803734.77822347 1.94771452 1.77362558 1.94771452.90491101 0 .85966546-.22647843 1.23972808-.48013427v.42577945h.81441995v-3.72330544h-.81441995v.42577946c-.11763843-.09059137-.4524555-.50731169-.986353-.50731169-.4524555 0-.60629037-.00905914-1.03159855.19930102-.60629037.30801067-.99540211.96932769-.99540211 1.71217695z"/><path d="m20.4057433 2.08360158c.2352768 0 .4705537.09059138.6243886.25365585.1357366.12682792.2805224.37142463.2805224.62508047h-1.891264c.0452455-.51637083.4886519-.87873632.986353-.87873632zm-1.8641167 1.13239217c0 .89685459.3076697 1.50381679 1.0496968 1.86618228.5067501.25365585 1.2216298.19930102 1.7374291.01811828.1809822-.05435483.5338975-.23553757.6243886-.3623655l-.3891117-.56166651c-.0633438.01811828-1.0858933.73379012-1.8279203.13588706-.1538349-.12682792-.3438662-.38048377-.3438662-.64319875h2.7328313c0-.82438149-.0995402-1.68499954-.8687146-2.09266072-.497701-.26271498-1.1944825-.26271498-1.6921836-.01811827-.2986206.14494619-.5338975.34424722-.7058306.61602134-.0633437.10870964-.1085893.1721236-.1538348.29895153-.081442.18118274-.162884.49825255-.162884.74284926z"/><path d="m11.3294858 2.56373586c0 1.54005334 2.3075231.81532236 2.3075231 1.55817162 0 .48013427-1.0225494.48919341-1.5202505.30801067-.0723929-.02717742-.2081295-.08153224-.2805224-.11776879-.081442-.03623655-.162884-.10870965-.2533751-.13588706-.0995402.06341396-.3800626.54354824-.3981608.62508048.5610448.37142463.9773039.44389772 1.7193309.44389772 1.6921836 0 1.9908042-1.56723075 1.067795-2.07454244-.3438662-.19024188-.7329779-.27177412-1.149237-.28989239-.9682548-.05435483-.660585-.73379013-.081442-.73379013.9954021 0 1.0044512.25365585 1.3211701.28083326.0180982-.08153224.1266875-.25365584.1719331-.34424722.0542946-.10870965.1357366-.20836016.162884-.33518808-.081442-.01811827-.1719331-.09059137-.2624242-.13588706-.9501566-.43483859-2.8052242-.36236549-2.8052242.95120942z"/><path d="m15.7545007.42577945v1.04180079h-.7329779v.73379013h.7329779c0 .68849443-.081442 2.05642417.1990804 2.53655844.3619644.63413962 1.3211701.59790307 1.891264.35330636.0995402-.04529569.1266876-.0724731.2171787-.09965051l-.2262278-.69755357c-.1538349.00905913-.0180982-.00905914-.1266875.03623655-.4524555.19930102-1.1130406.23553757-1.1130406-.38048377v-1.7484135h1.2397281c.1538349 0 .0904911-.31706981.0904911-.73379013h-1.3302192v-1.13239216h-.7601252c-.0633438 0-.081442.01811828-.081442.09059137z"/><path d="m25.563736 3.24317116c0 1.15956957.7239288 2.00206934 1.891264 2.00206934.4524555 0 .7872726-.02717741 1.1673352-.2445967.0995402-.05435483.1266876-.11776879.244326-.1449462-.0271473-.09965051-.1176384-.23553757-.1719331-.33518808-.0723929-.11776879-.1357366-.2174193-.1990804-.34424722-.1266875.00905914-.244326.13588706-.3800626.19024188-.8868128.37142463-1.7012327-.11776878-1.7012327-.89685459 0-.39860204-.0090491-.67037616.2805224-.97838683.4162591-.45295686 1.0858932-.44389773 1.5926434-.13588706.081442.05435483.1085893.08153224.1809822.12682792.1357366-.20836015.2805224-.45295686.3981608-.67943529-.6153395-.40766118-.7148797-.41672032-1.5021523-.41672032-.2624242 0-.5248484.09059137-.7239288.17212361-.2533751.10870965-.3710135.19930102-.5519957.38048376-.2805224.28083326-.5248484.76096754-.5248484 1.30451578z"/><path d="m23.8172578 1.86618229v-.39860205h-.8506164v3.6417732c0 .06341397.0271474.08153224.0904911.08153224.9411075 0 .7601253.18118275.7601253-.84249977 0-.41672032-.0452456-1.48569852.0904911-1.80276833.2624242-.61602133.9501565-.35330635 1.1763843-.34424721.0452455-.19930102.2171786-.65225789.2262277-.78814495-.4796028-.04529569-.9501565-.11776878-1.3302191.27177412-.0633438.06341396-.1085894.13588706-.162884.18118275z"/><path d="m34.9476632 1.86618229v-.39860205h-.8144199v3.72330544h.8144199v-1.8933597c0-.44389773.081442-1.15051044.6515359-1.15051044.40721 0 .5067502.05435483.6515359.05435483.0361965-.47107514.40721-.81532236.0542947-.81532236-.4162591 0-.660585-.05435483-1.0135003.16306447-.1357367.08153224-.2081296.22647843-.3438662.31706981z"/></g></g></svg>