<svg height="24" viewBox="0 0 24 24" width="24" xmlns="http://www.w3.org/2000/svg"><path d="m23.6824.1172c-.1564-.1564-.4092-.1564-.5656 0l-1.4828 1.4828h-9.3132l-11.708 11.8044c-.2664.2664-.4132.6212-.4132.998s.1468.7316.4132.998l8.1864 8.1864c.2748.2748.6352.4124.9964.4124.3628 0 .7256-.1388 1.0036-.4164l11.4004-11.7084v-9.7088l1.4828-1.4828c.1564-.1564.1564-.4092 0-.5656zm-2.2828 11.4324-11.17 11.4716c-.2384.2384-.6264.2384-.8648 0l-8.1864-8.1864c-.2384-.2384-.2384-.6264.0012-.866l11.4748-11.5688h8.1796l-1.9332 1.9332c-.3164-.2096-.6944-.3332-1.1012-.3332-1.1028 0-2 .8972-2 2s.8972 2 2 2 2-.8972 2-2c0-.4068-.1236-.7848-.3332-1.1012l1.9332-1.9332zm-2.4-5.5496c0 .6616-.5384 1.2-1.2 1.2s-1.2-.5384-1.2-1.2.5384-1.2 1.2-1.2c.1848 0 .3576.0456.514.1204l-.7968.7968c-.1564.1564-.1564.4092 0 .5656.078.078.1804.1172.2828.1172s.2048-.0392.2828-.1172l.7968-.7968c.0752.1564.1204.3292.1204.514z" fill="#fff"/></svg>